<svg xmlns="http://www.w3.org/2000/svg" version="1.1" xmlns:xlink="http://www.w3.org/1999/xlink" xmlns:svgjs="http://svgjs.dev/svgjs" width="1000" height="1000" viewBox="0 0 1000 1000"><rect width="1000" height="1000" fill="#71d1d9"></rect><g transform="matrix(0.7,0,0,0.7,149.57575757575756,338.93414354260324)"><svg viewBox="0 0 396 182" data-background-color="#71d1d9" preserveAspectRatio="xMidYMid meet" height="459" width="1000" xmlns="http://www.w3.org/2000/svg" xmlns:xlink="http://www.w3.org/1999/xlink"><g id="tight-bounds" transform="matrix(1,0,0,1,0.2400000000000091,0.2355613919894779)"><svg viewBox="0 0 395.52 181.52887721602104" height="181.52887721602104" width="395.52"><g><svg viewBox="0 0 395.52 181.52887721602104" height="181.52887721602104" width="395.52"><g><svg viewBox="0 0 395.52 181.52887721602104" height="181.52887721602104" width="395.52"><g id="textblocktransform"><svg viewBox="0 0 395.52 181.52887721602104" height="181.52887721602104" width="395.52" id="textblock"><g><svg viewBox="0 0 395.52 181.52887721602104" height="181.52887721602104" width="395.52"><g transform="matrix(1,0,0,1,0,0)"><svg width="395.52" viewBox="-4.85 -34.95 76.14999999999999 34.95" height="181.52887721602104" data-palette-color="#4a4a4a"><path d="M36.15-2.15L41.95-2.15 41.95 0 30.8 0 27.3-7.95 9.8-7.95 6.3 0-4.85 0-4.85-2.15 0.95-2.15 15.4-34.95 21.7-34.95 36.15-2.15ZM12.2-13.4L24.9-13.4 18.55-27.8 12.2-13.4ZM47.85-2.15L71.3-2.15 71.3 0 37.1 0 37.1-2.15 41.95-2.15 41.95-34.95 53.95-34.95Q61.9-34.95 65.55-31.9 69.2-28.85 69.2-22.5 69.2-16.15 65.47-13.2 61.75-10.25 54.05-10.25L54.05-10.25 47.85-10.25 47.85-2.15ZM54.7-15.6Q59.6-15.6 61.37-17.48 63.15-19.35 63.15-22.98 63.15-26.6 60.9-28.1 58.65-29.6 53.85-29.6L53.85-29.6 47.85-29.6 47.85-15.6 54.7-15.6Z" opacity="1" transform="matrix(1,0,0,1,0,0)" fill="#4a4a4a" class="undefined-text-0" data-fill-palette-color="primary" id="text-0"></path></svg></g></svg></g></svg></g></svg></g></svg></g><defs></defs></svg><rect width="395.52" height="181.52887721602104" fill="none" stroke="none" visibility="hidden"></rect></g></svg></g></svg>